/* XPM */
static char *_b4dedfedc4241febd6b8b15e805d14aW3wQqeWWhMPxI28b[] = {
/* columns rows colors chars-per-pixel */
"50 50 223 2 ",
"   c #090D0E",
".  c #16120F",
"X  c #1A1C19",
"o  c #091219",
"O  c #201205",
"+  c #21201B",
"@  c #071725",
"#  c #161C26",
"$  c #0C1631",
"%  c #111E34",
"&  c #191C35",
"*  c #13212A",
"=  c #1E2629",
"-  c #142635",
";  c #13213C",
":  c #1D2D3D",
">  c #1A2638",
",  c #1F3037",
"<  c #09233C",
"1  c #222426",
"2  c #272A2A",
"3  c #252A36",
"4  c #23233C",
"5  c #222C39",
"6  c #2B2B37",
"7  c #2A343E",
"8  c #2C3A3B",
"9  c #2F3334",
"0  c #333B3C",
"q  c #35313E",
"w  c #363229",
"e  c #4B423D",
"r  c #0A1847",
"t  c #161F48",
"y  c #0A2549",
"u  c #1B2A47",
"i  c #1A2749",
"p  c #1E364D",
"a  c #143046",
"s  c #1B2C53",
"d  c #1C2D59",
"f  c #132B57",
"g  c #1C3254",
"h  c #1C335C",
"j  c #18385D",
"k  c #222B4B",
"l  c #222A48",
"z  c #2A3944",
"x  c #22324C",
"c  c #2C334C",
"v  c #2A3747",
"b  c #313A46",
"n  c #233354",
"m  c #2A3554",
"M  c #2D3954",
"N  c #223359",
"B  c #2C355C",
"V  c #2F3C58",
"C  c #323654",
"Z  c #343F5B",
"A  c #393B54",
"S  c #242D56",
"D  c #162E63",
"F  c #1D306B",
"G  c #283D6B",
"H  c #273A64",
"J  c #303869",
"K  c #283971",
"L  c #413E53",
"P  c #463B41",
"I  c #2E4044",
"U  c #35414B",
"Y  c #3A4549",
"T  c #244058",
"R  c #3A4854",
"E  c #2B4A6D",
"W  c #3B4568",
"Q  c #3F557A",
"!  c #294574",
"~  c #4A4445",
"^  c #464958",
"/  c #495657",
"(  c #565556",
")  c #685F55",
"_  c #4C5363",
"`  c #465366",
"'  c #52576A",
"]  c #455676",
"[  c #575D73",
"{  c #5E6462",
"}  c #5C6278",
"|  c #63666B",
" . c #6F6A6C",
".. c #726B61",
"X. c #6F706B",
"o. c #7F786E",
"O. c #636475",
"+. c #696D79",
"@. c #6C7678",
"#. c #74757A",
"$. c #87827A",
"%. c #A78E71",
"&. c #C09E7B",
"*. c #355482",
"=. c #716E81",
"-. c #6E7487",
";. c #5F819D",
":. c #7A848A",
">. c #7C899C",
",. c #7193AF",
"<. c #888A8C",
"1. c #948B86",
"2. c #8E908D",
"3. c #99908B",
"4. c #8D8B93",
"5. c #829090",
"6. c #979998",
"7. c #928A99",
"8. c #B69E82",
"9. c #ACA59D",
"0. c #B7BF96",
"q. c #B8AB98",
"w. c #838FB7",
"e. c #8997A4",
"r. c #A59CA9",
"t. c #9DADBC",
"y. c #A7A4A7",
"u. c #A6B7AF",
"i. c #A3ACB1",
"p. c #A7B1B6",
"a. c #B3BCB9",
"s. c #D8BE9D",
"d. c #E8BD92",
"f. c #C6B9A9",
"g. c #C9BEB9",
"h. c #BEC896",
"j. c #F1C49B",
"k. c #C1C7A5",
"l. c #DAC6AD",
"z. c #D7C3AB",
"x. c #D7C5B5",
"c. c #DCC7B2",
"v. c #D5DDB3",
"b. c #E8C7A6",
"n. c #FFD5AB",
"m. c #F9D1A9",
"M. c #EDCBB0",
"N. c #E5D3B5",
"B. c #E9D4BA",
"V. c #FADBB9",
"C. c #F5CBA5",
"Z. c #D8E5AD",
"A. c #E0EAB5",
"S. c #FFE0B5",
"D. c #B2BBC5",
"F. c #B6BDCB",
"G. c #B1BCD2",
"H. c #A7B5C0",
"J. c #B4BEE1",
"K. c #BBC4CC",
"L. c #A7CBEB",
"P. c #B4C7EF",
"I. c #CBC8C9",
"U. c #CCD5C7",
"Y. c #D6D8CA",
"T. c #C7C9D8",
"R. c #CED7DE",
"E. c #D4D4D1",
"W. c #DCD5D4",
"Q. c #D8D8D9",
"!. c #D8CBCE",
"~. c #E5D3C3",
"^. c #EDDAC7",
"/. c #E2DDD8",
"(. c #E8D9D8",
"). c #F5DAC9",
"_. c #DBE2C3",
"`. c #E3E7CD",
"'. c #FFE3C2",
"]. c #FAE6CD",
"[. c #FAFFCA",
"{. c #E1E2DC",
"}. c #ECE5DB",
"|. c #E1E4D4",
" X c #FCECDF",
".X c #F6E6D0",
"XX c #EDF2DE",
"oX c #F1F5DB",
"OX c #FAFCDC",
"+X c #FEF1D7",
"@X c #CBD2E5",
"#X c #CDDAE6",
"$X c #C9CFF1",
"%X c #C8DBFF",
"&X c #C4CBE5",
"*X c #DBE6F8",
"=X c #D8E3E9",
"-X c #E5E3E3",
";X c #ECEDEC",
":X c #EBE8E3",
">X c #F1EEEF",
",X c #F4ECE3",
"<X c #EFF3EB",
"1X c #FBF2E5",
"2X c #FFFCE5",
"3X c #F2F2ED",
"4X c #F6F8EB",
"5X c #FEFEEC",
"6X c #F7F5E9",
"7X c #EDEEF1",
"8X c #EAEDFA",
"9X c #E5EAF5",
"0X c #ECF3F4",
"qX c #EAF4FD",
"wX c #EFFCFF",
"eX c #EAF5FB",
"rX c #F5F5F5",
"tX c #FBF6F3",
"yX c #F5FAF5",
"uX c #FDFCF4",
"iX c #F4F5FB",
"pX c #F5FCFE",
"aX c #FEFFFE",
/* pixels */
"aXaXaXaXaXaXaXaXaXaXaXaXaXaXaXaXaXaXaXaX4XtXaXuXuXaXaXaXpXwXpXpXaXaXaXaXaXaXaXaXaXaXaXaXaXaXaXaXaXaX",
"aXaXaXaXaXaXaXaXaXaXaXaXaXaXaXaXaXaX3XrXaXaXaXaXyXaXaXaXaXaXpXpXaXaXaXaXaXaXaXaXaXaXaXaXaXaXaXaXaXaX",
"aXaXaXaXaXaXaXaXaXaXaXaXaXaXaXaX4XaXaX4XtXaXaX3XaXaXaXyXaXaXaXyXaXaXaXaXaXaXaXaXaXaXaXaXaXaXaXaXaXaX",
"aXaXaXaXaXaXaXaXaXaXaXaXaXaXaXaXaX3XaXaXaXyXaXaXaXaXaXtXuXuXuXaXaXaXaXaXaXaXaXaXaXaXaXaXaXaXaXaXaXaX",
"aXaXaXaXaXaXaXaXaXaXaXaXaXaXaXaXaXuXtXrXpXaXiXpXiXpXpXaXaXuXtXuXaXaXaXaXaXaXaXaXaXaXaXaXaXaXaXaXaXaX",
"aXaXaXaXaXaXaXaXaXaXaXaXaXaXaXaX:XaXaXiXaX8X#XpXpXaXiXaXaXaXtXaXaXaXaXaXaXaXaXaXaXaXaXaXaXaXaXaXaXaX",
"aXaXaXaXaXaXaXaXaXaXaXaXaXaXaXaXaXiXiXiXD.U 5 :.qXpXpXiXpXaXuXaXaXaXaXaXaXaXaXaXaXaXaXaXaXaXaXaXaXaX",
"aXaXaXaXaXaXaXaXaXaXaXaXaXaXaXaXaXiXpXK.z * v @ e.#XaXaXiXaXaXuXaXaXaXaXaXaXaXaXaXaXaXaXaXaXaXaXaXaX",
"aXaXaXaXaXaXaXaXaXaXaXaXaXaXaXaXyX9X:.* } H.z 5 - U 8 K.pXpXrXaXaXaXaXaXaXaXaXaXaXaXaXaXaXaXaXaXaXaX",
"aXaXaXaXaXaXaXaXaXaXaXaXaXaXaXaXaX:.o R U { 5 6 z * 5 z K.pXpXiXaXaXaXaXaXaXaXaXaXaXaXaXaXaXaXaXaXaX",
"aXaXaXaXaXaXaXaXaXaXaXaXaXaXaXaXeXaX~ X = =   0 9 = 8 2 i.wXpXpXaXaXaXaXaXaXaXaXaXaXaXaXaXaXaXaXaXaX",
"aXaXaXaXaXaXaXaXaXaXaXaXaXaXaXaXpXaX2.+ X w ..9.$.) 2 1.0XpXpXpXaXaXaXaXaXaXaXaXaXaXaXaXaXaXaXaXaXaX",
"aXaXaXaXaXaXaXaXaXaXaXaXaXaXaXaXaX,X5Xf.q.B.z.N.B.f.) }.aXyXpXpXaXaXaXaXaXaXaXaXaXaXaXaXaXaXaXaXaXaX",
"aXaXaXaXaXaXaXaXaXaXaXaXaXaXaXuX,X5X6X%.8.S.%.%.S.V.l. XuX<XpXpXaXaXaXaXaXaXaXaXaXaXaXaXaXaXaXaXaXaX",
"aXaXaXaXaXaXaXaXaXaXaXaXaXaXaXaX5X2X.XB.b.S.d.n.n.b.'.].uXyXaX0XaXaXaXaXaXaXaXaXaXaXaXaXaXaXaXaXaXaX",
"aXaXaXaXaXaXaXaXaXaXaXaXaXaXaXaX5X2XB.b.V.d.n.j.C.m.+X2X2X4XyXpXaXaXaXaXaXaXaXaXaXaXaXaXaXaXaXaXaXaX",
"aXaXaXaXaXaXaXaXaXaXaXaXaXaXaXuX5XOX+XN.s.M.M.b.).g.g.uXrXyXyXaXyXaXaXaXaXaXrXaXaXaXaXaXaXaXaXaXaXaX",
"pXaXaXaXaXaXaXaXaXaXaXaXaXaXaXaX4X4X2XB.c.B.~. Xx. .1 | =XqXpXeXaXaXaXaXaXaXpXaXaXaXaXaXaXaXaXaXaXaX",
"aXaXaXaXaXaXaXaXaXaXaXaXaXaXaXpXaXiXaX( e (.(.:Xr.q c c M J P.yXaXiXaXaXaXaXaXuXaXaXaXaXaXaXaXaXaXaX",
"aXaXaXaXaXaXaXaXaXaXaXaXaXaXaXaXiX8XO.# q 4.iXiX} S c i n n m &XaXuXiXaXaXaXaXiXaXaXaXaXaXaXaXaXaXaX",
"aXaXaXaXaXaXaXaXaXaXaXaXaXaXaXaXaX5.2 / - A $X,.y E F T x W R :.aXaXaXaXpXtXaXaXaXaXaXaXaXaXaXaXaXaX",
"aXaXaXaXaXaXaXaXaXaXaXaXaXaXaXyXwXu./ @ > T s E f ! a j : @.U.{ I.tXuXaXaXiXaXaXaXaXaXaXaXaXaXaXaXaX",
"aXaXaXaXaXaXaXaXaXaXaXaXaXaXaXaXpXi.z , z - p T ! L.;.a I Y { X 6.rXpXaXaXaXaXrXaXaXaXaXaXaXaXaXaXaX",
"aXaXaXaXaXaXaXaXaXaXaXaXaXaXaXaXpX/ 5 R : x T y E L.,.< : 8 = e y.aXaXrXaXrXaXaXaXaXaXaXaXaXaXaXaXaX",
"aXaXaXpXaXaXaXaXaXaXaXaXaXaXaXaX8XA & C V S g D j *.f s c R r.I.>XaXaXaXaXaXaXaXaXaXaXaXaXaXaXaXaXaX",
"aXaXaXaXaXuXaXaXaXaXaXaXaXaXaXaX9X=.O.' k t H D D D G B & 7.(.(.(.rXaXaXpXaXaXaXaXaXaXaXaXaXaXaXaXaX",
"aXaXaXaXaXaXaXaXaXaXaXaXaXaXaXaXtXtX-XT.4 ` J r F K f l 2 3.).g./.rXaXaXuXaXaXaXaXaXaXaXaXaXaXaXaXaX",
"aXaXaXaXaXaXaXaXaXaXaXaXaXaXaXaXtX1X(.!.c & t ` H r M >  .}.B.].,XpXaXaXaXaXaXaXaXaXaXaXaXaXaXaXaXaX",
"aXaXaXaXaXaXaXiXaXaXaXaXaXaXaXaXtXaX:X9.(. .3 0 R I 7 6.E.1X.X1XaXaXaXaXaXaXaXaXaXaXaXaXaXaXaXaXaXaX",
"aXaXaXaXaXaXaXaXaXaXaXaXaXaXaXaXaXaXg.P :X$.2 @.Y / I a.E.o.O ,XuXaXaXuXaXaXaXaXaXaXaXaXaXaXaXaXaXaX",
"aXaXaXaXaXaXaXaXaXaXaXaXaXaXaXaXaX7.P P !.r.l =.} b ^ =X#.. $.1XaXaXaXaXaXaXaXaXpXaXaXaXaXaXaXaXaXaX",
"aXaXaXuXaXaXaXuXaXaXaXaXaXaXaXaX>X6.W.#.^ L C k B S B A 4 9 uXaXuXaXaXaXaXiXuXaXaXaXaXaXaXaXaXaXaXaX",
"aXaXaXuXuXaXuXuXaXaXaXaXaXaXaXaXyXpXpX-.U n g N d s S s > } 9XaXaXaXaXaXaXaXaXaXaXaXaXaXaXaXaXaXaXaX",
"aXaXaXaXaXuXaXuXuXuXaXuXaXaXaXaXpXpXeXt.@ N g H d E r W M G.aX9XaXaXaXaXaXaXaXaXaXaXaXaXaXaXaXaXaXaX",
"aXaXaXaXaXuXaXuXaXuXaXaXaXaXaXaXaXyXwX#X% n i Q %XP.N u $ @XpXaXaXaXaXaXaXaXaXaXaXaXaXaXaXaXaXaXaXaX",
"aXaXaXaXaXaXaXaXaXaXaXaXaXaXaXaXeXpXaXqX>.p y ] wX*XQ c c &XpX8XaXaXaXaXaXaXaXaXaXaXaXaXaXaXaXaXaXaX",
"aXaXaXaXaXaXaXtXaXaXaXaXaXaXaXaXaXpX0XwXF.; k ] wXeXW & v @XaXaXaXaXaXaXaXaXaXaXaXaXaXaXaXaXaXaXaXaX",
"aXaXaXaXaXaXaXaXaXaXaXaXaXaXaXaXaXaXeXaXD.* l T eXpX' c / pXiXiXaXaXaXaXaXaXaXaXaXaXaXaXaXaXaXaXaXaX",
"aXaXaXaXtXaXaXaXaXaXaXaXaXaXaXaX>XrXaX;Xp.z 4 ^ qXpX_ 4 O.iXaXaXaXaXaXaXaXaXaXaXuXpXaXaXaXaXaXaXaXaX",
"aXaXtXaXaXaXaXaXaXaXaXaXaXaXaXaXuXaX;X| +.3 ^ F.pXwX+.7 7.R.iXaXaXaXaXaXaXaXaXaXaXaXaXaXaXaXaXaXaXaX",
"aXaXaXaXaXaXaXaXaXaXpXuXaXaXaXaXrXaXtXI.<.:.F.iXpX8XI.6 ^ ( >XaXaXaXaXaXaXaXaXaXaXaXaXaXaXaXaXaXaXaX",
"aXaXaXaXaXaXaXaXaXaXaXaXaXaXaXtXaXaXaXaXaXaXaXaXiXaXpX7X;X;XaXiXaXaXaXaXaXaXaXaXaXaXaXaXaXaXaXaXyXaX",
"aXuXaXuXaXaXaXaXaXaXaXaXaXaXaXtX>XrXiXaXaXaXaXiXaXaX7XaXpXaXaXuXaXaXaXaXaXaXuXiXaXaXaXaXaXaXaXaXuXaX",
"uXuXaXuXuXuXaXaXaXaXaXaXaXaXaXaXaXaXaXaXiXuXaXaXaXaXaXaXaXtXaXaXaXaXaXaXaXaXaXaXaXaXaXaXaXaXaXaXaXaX",
"5XuX5XuXuXuXaXaXaXaXaXaXaXaXaXaXaXpXaXaXaXaXaXpXiXtXaXiXaXrXaXiXaXaXaXaXaXaXaXaXaXaXaXaXaXaXaXaXaXaX",
"2X5X2X5XuXaXuXaXaXaXaXaXuXpXuXaXpXaXaXaXaXaXaXuXaXaXaXtXpXaXaXaXaXaXaXaXaXaXaXpXaXaXaXaXaXaXaXaXaXaX",
"oX`.`.<X2X4X<XrX3XrXuXpXtXiXiXiXiXiXpXiX>X;XrXrX4X;X4XrXrXaX7X7X;X>XrXiXpXaXiXtXrXiXiXtXtXiXrXrX3X4X",
"v.k.k.v.|.Y.E.-X-X-XrXiXyXtXiXtXuXiXiXiXiXuXuXrXuX;XyXrXuXrX0XaXQ.-X;XrXuXaXyXiXtXyXtXyXiXtXiXrX:X:X",
"A.h.h._.v.U.U.E.Q.Q.:XtXaXaXaXaXaXaXaXaXaXaXaXaXaXaXaXaXaXaXaXaXaXaXaXaXaXaXaXaXaXaXaXaXaXaXaXyX|.4X",
"[.Z.v.2X:X;X;X8X;X;X7XrXuXrXrX>XaXaXaXaXaXaXaXaXaXaXaXaXaXaXaXaXaXaXaXaXaXaXaXaXaXaXaXaXaXaXaXaX|.4X"
};
