/* XPM */
static char *ab0e78184619427f800e8dca8dbf7f1c7Kdb6chesOgMCC0W[] = {
/* columns rows colors chars-per-pixel */
"50 50 225 2 ",
"   c black",
".  c #010101",
"X  c #020202",
"o  c gray1",
"O  c #040404",
"+  c gray2",
"@  c #060606",
"#  c #070707",
"$  c gray3",
"%  c #090909",
"&  c gray4",
"*  c #0B0B0B",
"=  c #0C0C0C",
"-  c gray5",
";  c #0E0E0E",
":  c gray6",
">  c #101010",
",  c #111111",
"<  c gray7",
"1  c #131313",
"2  c gray8",
"3  c #151515",
"4  c #161616",
"5  c #181818",
"6  c #191919",
"7  c gray10",
"8  c #1B1B1B",
"9  c gray11",
"0  c #1D1D1D",
"q  c #1E1E1E",
"w  c gray12",
"e  c #202020",
"r  c gray13",
"t  c #222222",
"y  c #232323",
"u  c gray14",
"i  c #252525",
"p  c gray15",
"a  c #272727",
"s  c #282828",
"d  c #2A2A2A",
"f  c gray17",
"g  c #2C2C2C",
"h  c #2D2D2D",
"j  c gray18",
"k  c #2F2F2F",
"l  c gray19",
"z  c #313131",
"x  c gray20",
"c  c #353535",
"v  c gray21",
"b  c #373737",
"n  c gray22",
"m  c #393939",
"M  c #3A3A3A",
"N  c gray23",
"B  c #3C3C3C",
"V  c gray24",
"C  c #3F3F3F",
"Z  c gray25",
"A  c gray26",
"S  c gray27",
"D  c #464646",
"F  c #484848",
"G  c #494949",
"H  c gray29",
"J  c #4B4B4B",
"K  c #4C4C4C",
"L  c gray30",
"P  c #4E4E4E",
"I  c #505050",
"U  c #515151",
"Y  c gray32",
"T  c #535353",
"R  c gray33",
"E  c #555555",
"W  c #565656",
"Q  c gray34",
"!  c gray35",
"~  c #5A5A5A",
"^  c #5B5B5B",
"/  c gray36",
"(  c gray37",
")  c #5F5F5F",
"_  c #606060",
"`  c gray38",
"'  c #626262",
"]  c gray39",
"[  c #646464",
"{  c #656565",
"}  c gray40",
"|  c #676767",
" . c #686868",
".. c DimGray",
"X. c #6A6A6A",
"o. c gray42",
"O. c #6C6C6C",
"+. c #6D6D6D",
"@. c gray44",
"#. c #717171",
"$. c #727272",
"%. c gray45",
"&. c #747474",
"*. c gray46",
"=. c #777777",
"-. c gray47",
";. c gray48",
":. c #7C7C7C",
">. c #7E7E7E",
",. c gray50",
"<. c #808080",
"1. c #818181",
"2. c gray51",
"3. c #838383",
"4. c gray52",
"5. c #868686",
"6. c gray53",
"7. c #888888",
"8. c #898989",
"9. c gray54",
"0. c #8E8E8E",
"q. c gray56",
"w. c #909090",
"e. c gray57",
"r. c #929292",
"t. c #939393",
"y. c gray58",
"u. c #959595",
"i. c gray59",
"p. c #979797",
"a. c #989898",
"s. c gray60",
"d. c #9B9B9B",
"f. c #9D9D9D",
"g. c gray62",
"h. c #9F9F9F",
"j. c #A0A0A0",
"k. c gray63",
"l. c #A2A2A2",
"z. c gray64",
"x. c #A4A4A4",
"c. c #A5A5A5",
"v. c gray65",
"b. c #A7A7A7",
"n. c gray66",
"m. c #AAAAAA",
"M. c gray67",
"N. c #ACACAC",
"B. c gray68",
"V. c #AEAEAE",
"C. c gray69",
"Z. c #B1B1B1",
"A. c #B2B2B2",
"S. c gray70",
"D. c #B4B4B4",
"F. c gray71",
"G. c #B6B6B6",
"H. c #B7B7B7",
"J. c gray72",
"K. c #B9B9B9",
"L. c gray73",
"P. c #BBBBBB",
"I. c #BCBCBC",
"U. c gray74",
"Y. c gray",
"T. c gray75",
"R. c #C0C0C0",
"E. c #C1C1C1",
"W. c gray76",
"Q. c #C3C3C3",
"!. c gray77",
"~. c #C5C5C5",
"^. c #C6C6C6",
"/. c gray78",
"(. c #C8C8C8",
"). c gray79",
"_. c #CACACA",
"`. c #CBCBCB",
"'. c #CDCDCD",
"]. c #CECECE",
"[. c gray82",
"{. c LightGray",
"}. c gray83",
"|. c #D5D5D5",
" X c gray84",
".X c #D8D8D8",
"XX c gray85",
"oX c #DADADA",
"OX c gray86",
"+X c gainsboro",
"@X c #DDDDDD",
"#X c gray87",
"$X c #DFDFDF",
"%X c gray88",
"&X c #E1E1E1",
"*X c #E2E2E2",
"=X c gray89",
"-X c #E4E4E4",
";X c gray90",
":X c #E6E6E6",
">X c #E7E7E7",
",X c gray91",
"<X c #E9E9E9",
"1X c #EAEAEA",
"2X c gray92",
"3X c #ECECEC",
"4X c gray93",
"5X c #EEEEEE",
"6X c #EFEFEF",
"7X c gray94",
"8X c #F1F1F1",
"9X c gray95",
"0X c #F3F3F3",
"qX c #F4F4F4",
"wX c gray96",
"eX c #F6F6F6",
"rX c gray97",
"tX c #F8F8F8",
"yX c #F9F9F9",
"uX c gray98",
"iX c #FBFBFB",
"pX c gray99",
"aX c #FDFDFD",
"sX c #FEFEFE",
"dX c white",
/* pixels */
"dXdXdXdXdXdXdXdXdXdXdXdXdXdXdXdXdXdXdXdXdXdXdXdXdXdXdXdXdXdXdXdXdXdXdXdXdXdXdXdXdXdXdXdXdXdXdXdXdXdX",
"dXdXdXdXdXdXdXdXdXdXdXdXdXdXdXdXdXdXdXdXdXdXdXdXdXdXdXdXdXdXdXdXdXdXdXdXdXdXdXdXdXdXdXdXdXdXdXdXdXdX",
"dXdXdXdXdXdXdXdXdXdXdXdXdXdXdXdXdXdXdXdXdXdXdXdXdXdXdXdXdXdXdXdXdXdXdXdXdXdXdXdXdXdXdXdXdXdXdXdXdXdX",
"dXdXdXdXdXdXdXdXdXdXdXdXdXdXdXdXdXdXdXdXdXdXdXdXdXdXdXdXdXdXdXdXdXdXdXdXdXdXdXdXdXdXdXdXdXdXdXdXdXdX",
"dXdXdXdXdXdXdXdXdXdXdXdXdXdXdXdXdXdXdXdXdXdXdXdXdXdXdXdXdXdXdXdXdXdXdXdXdXdXdXdXdXdXdXdXdXdXdXdXdXdX",
"dXdXdXdXdXdXdXdXdXdXdXdXdXdXdXdXdXdXdXdXdXdXdXdXdXdXdXdXdXdXdXdXdXdXdXdXdXdXdXdXdXdXdXdXdXdXdXdXdXdX",
"dXdXdXdXdXdXdXdXdXdXdXdXdXdXdXdXdXdXdXdXdXdXdXdXdXdXdXdXdXdXdXdXdXdXdXdXdXdXdXdXdXdXdXdXdXdXdXdXdXdX",
"dXdXdXdXdXdXdXdXdXdXdXdXdXdXdXdXdXdXdXdXdXdXdXdXdXdXdXdXdXdXdXdXdXdXdXdXdXdXdXdXdXdXdXdXdXdXdXdXyXdX",
"dXdXdXdXdX>XP.Z.T.P.D.P.8XdXdXyXyXdX^.P.Z.Z.].M.(.yXdXyXrXdX8XD.D.D.Z.T.D.2XdXdXdXyXyX XZ.D.D.P.Z.T.",
"8XdXyX2XdXM.        #   3X8XdXdXyXyXG   ;       ` dXrXyXdXyX.X    ;       x.rXrXyXdXdX<.    #     4 ",
"dXdXdXdXdXP.  > %   # % 2XrXdXyXyXdXE   %   4 # ` rXyXdXyXdX.X#       % # W.dXdXyXrXrX8.  ; #   # 0 ",
"dX8XdXdXdXD.    %     % %XdXdX8XdXdX^   #   %   ( rXdXdXrXdX%X# ;     %   P.yX8XdXrXdXw.  ;       0 ",
"dXdXrX8XdX^.  ;     %   yXrXdXdX8XdXS   8 %     [ dX8XdXdXrX@X            T.dXyX2XdXdX<.    % ;   4 ",
"{..X%X.X Xw.m e b a e m Z. X XW.@X^.[ f f a e h ^ (.@XW.^..XD.C m b a a b >.D.^.T.W.Z.%.m x f e x C ",
"#     %   C yXdXrXdXdX3X#     %   % d.yXrXdXdX8Xd.    % %   # rXyXrXdXdXrXS #   #     ( 3XdXdXdXrXyX",
"  #   # # f dXdXdXdXyX@X4 #       % f.dXdXdXyXdX8.%     # # 0 8XdXdXdXyXdXm % #   % # Y dXdXdXdXdXyX",
"  ;     # x dXyXdXdXdX.Xe       %   V.rXyXdXrXdXw.          8 3XrXdXrXyXdXZ   #   >   Y dXrXdXyXdXdX",
"  % # ;   e dXdXdX8XyXyX# % > % #   M.yXrXrXyXdXw.  8 #   ; ; dXdXrXdXrXdXx #   # #   [ dXrXrXdXyXyX",
"      # # m yXdXdXdXdX3X#         % d.dXdXdXdXdXx.  #       > 8XdXrXdXrX8XZ 8   ;     E 3XdXdXdXyXdX",
"j.u.w.u.0...( P ^ Y E E w.u.f.u.j.w.[ ( ^ G E Z ` f.x.j.x.M.d.E G Y G ^ E 8.M.x.V.x.D.*.^ E Y E ^ [ ",
"rX8XdXdXdXT.%           3XdXdXrXdXdXP       ; % G dXyX3XyXdX2X    4   %   T.dXdXyXyXdX;.          ; ",
"dXdXdX3XdX^.  ;     % > @X8XdXdX2XdX^   > #     P yXdXdXdXdX%X%     #   # P.yXrXdX3XrX*.# ; %   % 0 ",
"rXyXdXrXrXT.  % %     ; .XdXdX3X3XdXE # %   % # G dXdX2X%XdX8X; >   ;     P.dXdXdXyXdX4.      % # 0 ",
"dXdXrXdXyXP.%     # #   >XyXdXdXdXyXG %     %   S yXrXdXdXdX8X      #   # (.dXyXdXdXdX>.    ;     > ",
"x.V.P.d.D.w.P P S Y P G j.M.j.Z.M.x.+.m P ( S P E M.d.f.d.d.j.Z S ^ G G G d.Z.Z.M.^.V.%.^ S Y S Y ( ",
">     #   x rXyXdXyXdXdX    ;   % % u.dXdXrXrXdXx.    %     #  XdXrX8XdX3X0 ;   #     ..rXdXdXdXyXdX",
"  #   >   x dXdXdXdX3XrX4 ;         8.rXyXrX3XdXf.  >     #   %XdXyXyXdXdX% % #   % # %.dXrX8XdXyXrX",
"  %     ; C 2XyXdXrXdXrX8       % % u.8XdXdXdXyXd.#     ;     (.rXyXdX8XyXf       >   Y yXdXdXrXdXyX",
";   ;     b yXdXdXdXyXyX8 ;   % ;   u.dXrX8XdXyXx.  %   # ;   .XdX8XdXyX8Xa   >   #   %.dXyXrXdXdXrX",
"      # # C 2XdXdX8XdX3X;   %     ; 4.rXdXdXdXdXj.    % %      XdXyXdXdX8X0 %   ;     ` 8XdXyXrXdXdX",
"P. XP.(.].4.b a a f f h Z.(.(.^.T.^.+.h C C h x E P.D.V.x.V.V.Y C S S G Y ..V.f.u.j.M...E ^ ` ( ( [ ",
"dXdXdXyXdXW.          % .XdXdXyXdXrX[       ;   C yXdXdXdXdX8X% #         .XdXyXdXdXdX*.          ; ",
"dXyXdXdXdXZ.  # #        XdXyXrXdXdX`   #   %   C rXdXrXyXdX>Xe   # #   ; W.rXyXdX8XdX*.  % % #   4 ",
"yXrX8X3XdXW.# #     8   @X8XdXdX8XyX`   ; % # # C dX2XyXdX2X8X> % #   #   ^.dXdXrXyXdX*.    #   # 8 ",
"dXdXdXdXdXD.;   %       @XdXdXyXdXdX+.          h dXdXyXdXdXrX#   %   #   W.dXrXdXdXyX>.#     %   ; ",
"%.>.>.*.*.%.>.<.;.<.;.;.;.<.*.;.+.%.....%.+.+.` [ ` *.+.%.>.` ^ Y Y E ( E 8.x.u.j.f.u.*.P S S G G E ",
"          m yXdXrXdXdX8Xe       # ; 0.dXdXdXdX8X].    % %   # .XdXyXyXdX3Xb   ; %   4 <.3XdXdXyXyXdX",
"# #   >   h dXyXdXrXdXdXf   ;   ;   w.dX3X8XdXyXZ.#         % (.8XrXdXrXdXe           4.dXdXyXyXrXyX",
"    #     h dXyXrX8XdXyXh   ;   #   u.dXyXdXdXdXD.#   ; %   ; ^.rXdXdX3XdXh 4 # % ; % 8.yX3XyXdXyXyX",
"    4   ; m 3XdXdXdXrXyXx           d.rXdXdXrXdXW.            {.dXrXyXdXdX8           <.dXdXdXdXdXyX",
"# 8 # %   S 8XdXdXyXdX8Xb % ; > ; > u.yXdXdXyXyXP.> # ; > % 4 ^.dX8XdX8XyXC   > 4   ; 8.3XdXdXdXrXyX",
"@X2X>XrX%X>XdXyXdXdXdXdX%X>X%X>X2X].rXdXrXyXdXdXdX.X3X2X>X3X@XdXyXdXdX8XdX@X X>X2X%X%XdXdXyXdXdXdXdX",
"dXdXyXdXdXdXdX3XyXyX8XrXdXdXdXdXdXyXdXdXdXdXdXrXyXdXdXdXdXyXdXdXyXdXdXrXdXdXdXdXdXdXdXyXrX3XyXrXdXdX",
"yXyXyXdXdXdXdXdXdXdXdXyXdX8XrXdXrXdXyXrXdXdXdXyXdXdX8XdXdX8XdXdXdXdXyXdXyXdX8X2XdXdXrXyXdXdXdXdXyXdX",
"dXdXdXdXdXyX3XdXdX8XdXrXdXyXdXdXdXdXdXyXdXdXdXdXyXdXdXdXdXdXdXyXdXrXdXdXdXdXdXdXdXdXdXdXdXyXrXyXdXdX",
"dXdXdXrXdXdXdXdXdXrXdXdXdXyXdXrX8XdXdXdXdXdXyXdXdXdXdX8XrXdXdXdXdXdXdXrXyXrXdXyXdXyXdXdXdXdXyXdXdXdX",
"yXdXdXdXdXdXdX3XyXdXdXdXyXrXdXdXdXdXyXdXyXrXdXdXyX8XdXdXdXdXrXyXyXdXdXyXdXdXdXrXdXrXdXrXyXdXrXdXdXdX",
"dXdXdXdXyXyXdXdXyXdXyXrXdXdXyXdXyXdXyXdXdXyXdXrXdXdXdXrXrXdXdXyXdXdXrXdXdXdXyXdXdXyXdXyXyXdXrXdXdXdX",
"dXdXdXdXdXdXdXdXdXdXdXdXdXdXdXdXdXdXdXdXdXdXdXdXdXdXdXdXdXdXdXdXdXdXdXdXdXdXdXdXdXdXdXdXdXdXdXdXdXdX",
"dXdXdXdXdXdXdXdXdXdXdXdXdXdXdXdXdXdXdXdXdXdXdXdXdXdXdXdXdXdXdXdXdXdXdXdXdXdXdXdXdXdXdXdXdXdXdXdXdXdX"
};
