/* XPM */
static char *a9271fadff3a4907b885520f60e38d1er8xM7YkB1iz3Qkl4[] = {
/* columns rows colors chars-per-pixel */
"50 50 239 2 ",
"   c #0D0303",
".  c #080605",
"X  c #150302",
"o  c #1B0203",
"O  c #1C0209",
"+  c #180908",
"@  c #240203",
"#  c #2A0103",
"$  c #240109",
"%  c #2B0109",
"&  c #260800",
"*  c #340103",
"=  c #3B0205",
"-  c #31010A",
";  c #3C020B",
":  c #240010",
">  c #2A110C",
",  c #430304",
"<  c #4D0204",
"1  c #450209",
"2  c #490308",
"3  c #530302",
"4  c #5B0205",
"5  c #5C030C",
"6  c #560609",
"7  c #540312",
"8  c #640304",
"9  c #6A0005",
"0  c #64040B",
"q  c #6D040A",
"w  c #660804",
"e  c #7B030C",
"r  c #750406",
"t  c #640412",
"y  c #760412",
"u  c #59003A",
"i  c #6D0434",
"p  c #630C41",
"a  c #67244F",
"s  c #49267A",
"d  c #572653",
"f  c #840203",
"g  c #8A030C",
"h  c #870409",
"j  c #920103",
"k  c #9C0103",
"l  c #93020C",
"z  c #9E030A",
"x  c #860512",
"c  c #920313",
"v  c #9B0218",
"b  c #A30003",
"n  c #AC0402",
"m  c #A5040C",
"M  c #AC040A",
"N  c #A70B0B",
"B  c #B50002",
"V  c #BD0202",
"C  c #BD0A03",
"Z  c #B4020D",
"A  c #BD040C",
"S  c #BB0B0B",
"D  c #B60B0A",
"F  c #BC1207",
"G  c #AE0112",
"H  c #A5031B",
"J  c #B40313",
"K  c #BC0412",
"L  c #B90B12",
"P  c #BA061B",
"I  c #BB1C19",
"U  c #A51417",
"Y  c #902207",
"T  c #BC2206",
"R  c #BB2417",
"E  c #B2371D",
"W  c #A90621",
"Q  c #BC1F26",
"!  c #902B29",
"~  c #B92827",
"^  c #AD332A",
"/  c #A93D3A",
"(  c #C40302",
")  c #CC0202",
"_  c #C30B02",
"`  c #CC0803",
"'  c #C4020B",
"]  c #CB040C",
"[  c #C30A0B",
"{  c #CC0B0B",
"}  c #D30103",
"|  c #DC0304",
" . c #D4030C",
".. c #DC030C",
"X. c #D4090C",
"o. c #D90908",
"O. c #CA1108",
"+. c #C30513",
"@. c #CC0413",
"#. c #C30A12",
"$. c #CB0912",
"%. c #C80719",
"&. c #D40413",
"*. c #DB0413",
"=. c #D50A13",
"-. c #DC0A13",
";. c #D4051A",
":. c #DD051B",
">. c #D30818",
",. c #DB0B1A",
"<. c #C61919",
"1. c #EB0204",
"2. c #E3030B",
"3. c #E60307",
"4. c #F0060A",
"5. c #E40314",
"6. c #EA0314",
"7. c #E30B15",
"8. c #E4051B",
"9. c #EB051C",
"0. c #E5081C",
"q. c #EA091E",
"w. c #EB0915",
"e. c #F10213",
"r. c #F3051C",
"t. c #F9071F",
"y. c #C42A17",
"u. c #C2351A",
"i. c #CC350B",
"p. c #C60D22",
"a. c #DB0623",
"s. c #CC1825",
"d. c #DB1725",
"f. c #C81E34",
"g. c #E50621",
"h. c #EC0622",
"j. c #E50A23",
"k. c #ED0924",
"l. c #F30624",
"z. c #FD0623",
"x. c #F20925",
"c. c #FC0A25",
"v. c #F50529",
"b. c #F50929",
"n. c #FA092C",
"m. c #FD0A30",
"M. c #F70B31",
"N. c #C82527",
"B. c #C33529",
"V. c #C52C34",
"C. c #DD2332",
"Z. c #C53937",
"A. c #D4343C",
"S. c #E23939",
"D. c #E12931",
"F. c #B35D05",
"G. c #B86209",
"H. c #B26A07",
"J. c #954536",
"K. c #904C2B",
"L. c #B14539",
"P. c #CC5118",
"I. c #C5640C",
"U. c #C87017",
"Y. c #BD3340",
"T. c #C93B43",
"R. c #E32B45",
"E. c #965742",
"W. c #A15F53",
"Q. c #956D51",
"!. c #B96B5F",
"~. c #C74349",
"^. c #D34749",
"/. c #C5544D",
"(. c #C74B56",
"). c #D84D57",
"_. c #C75657",
"`. c #D65658",
"'. c #E14550",
"]. c #D1625E",
"[. c #D85E66",
"{. c #CF5A6D",
"}. c #E15F67",
"|. c #C96A67",
" X c #D86B6C",
".X c #D86C75",
"XX c #C9767A",
"oX c #DD7979",
"OX c #CF6279",
"+X c #E66C7C",
"@X c #E16A70",
"#X c #C6837B",
"$X c #E48478",
"%X c #582F8D",
"&X c #DD7280",
"*X c #E07182",
"=X c #BFA594",
"-X c #CD8988",
";X c #D78784",
":X c #CF9B96",
">X c #DD9997",
",X c #D69E87",
"<X c #E5969C",
"1X c #D8A89E",
"2X c #DA91A4",
"3X c #DAA8A5",
"4X c #DBBAB9",
"5X c #DCAEAF",
"6X c #E3B2AA",
"7X c #E3A8B2",
"8X c #E4B9B8",
"9X c #EDA7AE",
"0X c #D4C7BD",
"qX c #E1C0B7",
"wX c #DFDEDC",
"eX c #E7D7D5",
"rX c #EACDC8",
"tX c #E8E6DB",
"yX c #ECEAEB",
"uX c #E6E8E6",
"iX c #F9EAEA",
"pX c #E6F3ED",
"aX c #FBF4ED",
"sX c #F6F7EC",
"dX c #EFEFF1",
"fX c #FBEEF3",
"gX c #F8ECF5",
"hX c #ECF4F1",
"jX c #E4FEFE",
"kX c #EDFEFB",
"lX c #E9FAF3",
"zX c #F5F5F5",
"xX c #FBF4F4",
"cX c #F4FAF5",
"vX c #FAFAF6",
"bX c #F5F6FA",
"nX c #FEF5FD",
"mX c #F4FDFD",
"MX c #FAFCFC",
/* pixels */
"mXhXfXvXzXxXhXMXmXkXyXrX1X-X|.(.~.V.~ I D L L n M Z B S S S I ~ V.T./.|.#X3XqXuXvXMXMXnXxXkXfXnXzXzX",
"zXbXsXlXbXMXsX8X.XZ.#.A V ( ( ( ` ( @.K ( } P i %Xs p G } #.A ` ( ( V ( ) ( A <.R |.3XaXmXbXkXcXzXzX",
"xXMXbXvXzX4XV.m ! / ~ ' ..{ S ] '  .*.&.&.5.:.+.P P +.;.*.*.&.*.&.{ [ ] ] ' ' <.L.^ U I ,XMXMXfXzXvX",
"lXzXgXvX-Xg ! K.Q.Q.^ ' ] ]  .,.2.*.*. . .;.;.3...2.2.,.;.....o.;.*.*.&. .' [ <.W.Q.E.! z XXxXbXcXbX",
"cXbXMX0XB Y J.K.^ V ( [ .... .) *.X.-.-.o.3.5.a.-.*...2.....*. .......o... .` ' $.R ^ J.J.M =XMXbXzX",
"bXxXkXY.) } ;.] ] ] ] ] ' *.8.*.@.*.*.&. .....X. .*.,.;.;.*.0.*.&.*.-.*.&.;.@.' '  .} &.) } s.uXvXzX",
"zXMX8X( _  .' ..B  .2.2.X. ...*.| *.;.*.5.5.;.2.a.7...*.7.2.o.&. . . .=. . .*.7.V C ' ' ) | B >XMXcX",
"sXmX#X} ' ;.| C [  .&. . .&.=.*.8.5.4.e.j.0.9.9.5.e.9.0.j.6.r.9.k.5.5.*.=. . ...7.A ' ..`  .[ /.MXbX",
"zXmX!.} @.>.} J  .&.X. .2.6.5.5.+.K m l e q 0 8 4 4 5 8 q e x c M A &.5.9.8.&. .} &.' &.` } ( V.mXbX",
"nXkXA.}  .) ( [ 2.2...&.A c 0 ; # @ @ o o X O O O O o X X X o o O $ * 3 r z ' 5.5.*.S $.}  .} N.zXcX",
"nXlXB.' ..X.S ..@.m 9 * o X X X @ @ @ @ @ % % % - % % # # @ $ @ @ $ o o X @ = 2 l @.$.] } ] X.<.dXvX",
"xXlXZ.)  .-.Z y # @ o o @ & # # # # # # # @ @ & o & & # # # # # @ @ # # @ O $ $ o , 9 +.=.) ..s.dXnX",
"vXnX~.o._ ..m   % & @ # % @ @ @ $ O @ $ @ # @ $ @ % % # # % % $ $ @ # @ @ @ # # * o X Z 6.o.( B.jXzX",
"gXMX(.} { }  .; @ @ @ $ $ $ # # @ @ # # # # # # % % # $ % $ @ $ @ # @ $ & $ @ # + - ; *.A F } ^.mXzX",
"MXlX|.) +.e  .4 O @ # * # # @ $ % % % % % $ $ % $ & & @ @ @ # # % % % # @ $ @ o @   5 e.6 k  .!.xXMX",
"5X).A.S ;., $.f o @ @ @ @ @ @ % # @ @ @ $ @ # % # # $ # # # # # @ # @ @ @ @ # # # X x 1.* c { R.OX7X",
"[.*X4X|.( # v ( o X - $ $ % % @ % % % % % # % # % % % % % # # % # # % # # & @ @ $ o ' ' . f ^.7X`.~.",
"vXaXMX.X( O 0 -.= o @ @ # @ # @ o o o o O $ O O o O @ O O + X X O O O O @ $ @ $ o * *.j . h }.vXzXyX",
"bXcXMX).B + # 5.5 o o o # * , 6 q q y x c v H H W W H H v c c c q q 5 6 1 ; * # X < 9.4 X r ).MXzXbX",
"gXzXkX).n + o %.b r m P :.:.h.b.z.z.z.z.c.n.n.n.n.c.n.c.n.c.b.x.z.c.r.9.:.-.%.@.m H *.# O r T.jXzXxX",
"cXxXjX^.b O @ c $.#.r.q.9.6.7.7.k.k.k.x.k.x.k.k.b.k.b.x.b.x.x.k.k.k.h.h.h.h.h.9.+.@.Z o & 9 A.hXzXbX",
"xXxXkXS.k X o 9 ;.%.9.:.:.j.v.l.j.k.k.x.n.M.M.m.M.M.M.n.b.b.v.v.x.k.h.0.q.w.5.5.N 8.l o X 3 S.zXcXsX",
"cXzXjXS.j . $ < @.[ 9.9.9.q.q.5.k.k.x.b.b.b.b.b.n.n.n.n.n.b.b.b.k.k.k.0.0.0.0.0.m 8.0 o + 4 C.pXbXbX",
"mXmXmXS.l X @ # &.L :.9.9.:.h.l.v.k.v.b.b.n.n.n.m.M.n.n.n.n.x.k.v.k.h.h.h.9.8.8.G 9.7 o $ 3 d.hXvXvX",
"zXzXMX^.j o @ @ +.L h.8.9.g.h.h.k.k.x.x.v.n.n.M.m.m.m.n.n.b.b.v.k.x.q.k.q.9.h.;.Z 0., @ o 4 s.yXvXbX",
"zXzXMX^.j o # @ K L 8.5.9.0.q.h.v.k.x.b.b.n.n.n.m.m.m.n.n.b.x.x.k.x.q.q.8.8.9.>.Z 8., @ o 4 d.yXvXzX",
"zXzXMX^.j O @ @ +.K 8.8.9.g.h.h.k.k.v.x.b.n.n.n.m.n.n.n.n.x.v.x.x.k.h.9.q.0.9.;.J w.= @ o 4 d.uXvXzX",
"hXxXMX`.k O @ @ K K ;.0.0.0.h.h.k.k.x.x.x.b.b.n.n.n.n.n.n.n.x.x.k.x.0.q.0.9.9.@.K 9.= & o 4 d.uXMXbX",
"vXzXvX].k + @ @ +.+.$.9.0.0.q.h.h.x.k.x.b.n.x.n.b.n.n.n.b.b.x.k.k.x.q.9.h.0.9.%.K w., @ X 8 d.yXbXxX",
"xXzXmX Xk o @ @ +.#.+.9.0.0.9.q.h.h.k.x.k.n.n.v.b.n.b.b.x.x.k.b.k.k.q.q.0.8.8.+.K 9.< o X q d.hXvXbX",
"zXzXmXoXb + & @ @.$.+.h.8.8.q.q.9.h.k.l.k.v.v.b.b.x.b.b.k.v.b.k.h.h.h.9.0.0.9.+.K w.3 o X r D.lXbXvX",
"zXzXMX$XM o @ # @.@.#.9.:.8.9.q.h.h.k.k.x.x.k.b.k.v.x.k.v.v.k.k.h.h.h.9.8.8.8.[ K 0.4 @ X x D.kXzXzX",
"xXaXkX2XD & # * ;._ +.9.6.g.7.g.j.9.q.q.h.x.x.l.v.b.x.k.x.k.k.h.h.j.0.0.8.9.8.#.K r.r & X f _.cXzXzX",
"zXpXMX9XB > o = :.$.K 9.5.g.9.h.9.h.h.h.k.j.k.k.l.x.q.q.9.q.q.9.r.h.0.0.8.8.*.K K 5.h X + z `.MXzXbX",
"cXzXxX).( % X 4 6. .K 8.,.;.2.-.8.g.0.h.h.h.h.9.j.j.x.h.g.h.j.j.8.:.8.8.8.9.0.$.L e.z X o z D.eXMXzX",
"zXMX4X'  .1   e w.*.J a.9.h.e.k.r.r.z.t.t.t.q.x.9.l.l.c.z.l.l.r.t.t.r.w.:.&.@.M Z e.L $ @ S  .:XMXzX",
"gXMX>X( 2.t X z *.' , = 2 2 3 5 0 0 q e y x e x x c c c g g g x t t 5 < ; = = o Z 7...* , *.)  XMXzX",
"zXmX>XC 7.l X A 7.;.= o @ X X O X o $ O $ : O $ X + O O O O X + o o o @ o @ @ X Z -.6.w r 2.] Z.vXbX",
"xXmX-X( ..( 3 *.|  .= o * @ & # & @ @ & # # * # % % % # $ % % # # # # # @ @ * O M 5.*.z Z ..} <.dXMX",
"iXmX-X ..._ K  .| ;.; o @ $ # $ # # @ @ @ @ @ $ # # @ @ @ @ @ @ @ @ # @ o @ # o M 5.&.[ ]  .` $.uXcX",
"sXMX-X} _  .'  . .%., : @ & O # @ $ $ o @ @ @ @ & # O @ @ $ $ * # @ + O @ # @ o M .. .K @.} } [ eXMX",
"zXmX:X) ..' ] S | 3.3 o # # O @ @ # # # @ & @ $ $ $ $ & # & o @ & # # # # @ @ o m 6.} { ..( ' [ uXvX",
"gXbX6XV { ..&.) ) @.1 . o * # $ & @ # $ @ @ # # @ # @ @ @ # $ $ @ # # # $ O o X m &.n ` ) ] &.<.sXbX",
"cXmX8XA ( ( ..} [ @.h 3 @ o o X @ o O @ % # # @ @ # # # @ # # o + o o o X * 6 y _ ( @. .} } ' B.bXbX",
"bXmXuXV.` C } #.(  .X.*.#.m f w 1 ; @ $ o @ X X X o O $ O @ @ & = 1 5 h M ' } ) ( | @.+.} O.( |.MXzX",
"zXxXMX4X] ) ( )  . .V ( '  .| e.2.) [ M j r w 4 r 5 6 8 w h G ] ) o.5.6.*.;.] ' ) ) _  .[ ) A rXbXzX",
"nXxXhXMX6Xp.Z | 1.3.3.} ' ;.] +. .) | 6...@.P H u u i Z ( +.&.3.5.*.@.K S V ( } 6.w.3.} A %.qXmXvXzX",
"bXaXxXjXvXtX XC ( ) 1.3.S ` | { &.' y.u.y.y.R R a d ! y.i.u.B.u.E T } } ..` } 3.| ( ) <. XuXmXxXzXzX",
"bXzXbXzXzXMXbXuX;X_.~ >.} ) ) ) ) _ P.I.H.F.H.F.I.I.F.G.F.G.I.I.P.T ( } } ) #.B.(.XX6XiXmXMXzXxXzXbX",
"bXzXzXzXzXzXzXvXMXMXiXrX8X>X;XoX+X{. X X}.}.+X.X.X.X.X+X.XoX*X*X$X;X<X7X8XrXeXfXvXMXMXMXcXzXzXcXvXbX"
};
